<svg xmlns="http://www.w3.org/2000/svg" width="1500" height="910" viewBox="0 0 1500 910" role="img" aria-labelledby="title desc">
  <title id="title">CuPGeo — architecture and module details</title>
  <desc id="desc">Paper-aligned vector schematic: DINOv3 with LoRA and Pyramid-FPN feed a segmentation head and VRA. VRA corrects cup logits before cup-preserving disc composition. Soft-vCDR uses predicted and source-mask vertical moments during training. Stop-gradient acts only on the cup-to-disc branch. Solid gray arrows denote forward computation, blue arrows prediction, dashed terracotta arrows supervision, and dotted links module expansion. All images and probability maps are schematic vectors.</desc>
  <defs>
    <marker id="forward" viewBox="0 0 10 10" refX="8" refY="5" markerWidth="7" markerHeight="7" orient="auto">
      <path d="M1 1L9 5L1 9Z" fill="#6C7D89" />
    </marker>
    <marker id="prediction" viewBox="0 0 10 10" refX="8" refY="5" markerWidth="7" markerHeight="7" orient="auto">
      <path d="M1 1L9 5L1 9Z" fill="#2383D1" />
    </marker>
    <marker id="supervision" viewBox="0 0 10 10" refX="8" refY="5" markerWidth="7" markerHeight="7" orient="auto">
      <path d="M1 1L9 5L1 9Z" fill="#BB795F" />
    </marker>
    <radialGradient id="cup-probability">
      <stop offset="0" stop-color="#FFFFFF" />
      <stop offset="0.6" stop-color="#FBFCFC" />
      <stop offset="1" stop-color="#14212B" />
    </radialGradient>
    <radialGradient id="disc-probability">
      <stop offset="0" stop-color="#FFFFFF" />
      <stop offset="0.6" stop-color="#E9EEEE" />
      <stop offset="1" stop-color="#14212B" />
    </radialGradient>
    <radialGradient id="fundus">
      <stop offset="0" stop-color="#E9C597" />
      <stop offset="1" stop-color="#C69265" />
    </radialGradient>
    <linearGradient id="vertical-prior" x1="0" y1="0" x2="0" y2="1">
      <stop offset="0" stop-color="#345C8D" />
      <stop offset="0.25" stop-color="#547DA7" />
      <stop offset="0.42" stop-color="#EBC666" />
      <stop offset="0.5" stop-color="#FBE3A0" />
      <stop offset="0.59" stop-color="#EBC666" />
      <stop offset="0.78" stop-color="#547DA7" />
      <stop offset="1" stop-color="#345C8D" />
    </linearGradient>
  </defs>
  <rect x="0" y="0" width="1500" height="910" fill="#FFFFFF" stroke="none" />
  <g font-family="Arial, Helvetica, sans-serif" text-rendering="optimizeLegibility">
    <g id="method-overview">
      <rect x="154" y="30" width="1150" height="280" fill="#FCFDFE" stroke="#BFCFDD" stroke-width="1.5" stroke-dasharray="7 5" rx="3" />
      <text x="174" y="64" font-size="30" fill="#273440" font-family="Georgia, Times New Roman, serif" font-style="italic" font-weight="bold">CuPGeo</text>
      <text x="73" y="105" font-size="23" fill="#273440" font-family="Georgia, Times New Roman, serif" font-style="italic" text-anchor="middle">Input</text>
      <g transform="translate(20 129) scale(1.0)">
        <rect x="0" y="0" width="106" height="106" fill="#F7F0E5" stroke="#D7C7AE" rx="4" />
        <circle cx="53" cy="53" r="46" fill="url(#fundus)" stroke="#C69B6D" stroke-width="1" />
        <path d="M66 47C49 35 38 34 25 23M49 35L43 18" fill="none" stroke="#AB735C" stroke-width="1.7" opacity="0.65" />
        <path d="M66 50C43 49 29 62 17 59M38 51L26 41" fill="none" stroke="#AB735C" stroke-width="1.7" opacity="0.65" />
        <path d="M66 54C52 63 46 77 32 84M49 69L64 87" fill="none" stroke="#AB735C" stroke-width="1.7" opacity="0.65" />
        <path d="M69 49C76 34 82 31 91 24M78 37L72 19" fill="none" stroke="#AB735C" stroke-width="1.7" opacity="0.65" />
        <path d="M70 56C83 62 83 78 91 86" fill="none" stroke="#AB735C" stroke-width="1.7" opacity="0.65" />
        <ellipse cx="68" cy="51" rx="15" ry="19" fill="#EACD93" stroke="#D5B47A" stroke-width="1" />
        <ellipse cx="68" cy="51" rx="7" ry="11" fill="#F5E1B1" />
      </g>
      <text x="73" y="260" font-size="17" fill="#697781" text-anchor="middle">Source / target</text>
      <path d="M128 181H183" fill="none" stroke="#6C7D89" stroke-width="2" marker-end="url(#forward)" />
      <g transform="translate(196 126) scale(1.13)">
        <polygon points="0,13.0 14,0.0 23,0.0 9,13.0" fill="#F7E3A0" stroke="#C09F48" stroke-width="1" />
        <polygon points="9,13.0 23,0.0 23,76.0 9,89.0" fill="#C09F48" stroke="#C09F48" stroke-width="1" />
        <rect x="0" y="13.0" width="9" height="76" fill="#E8CB7E" stroke="#C09F48" stroke-width="1" />
        <polygon points="21,17.5 35,4.5 44,4.5 30,17.5" fill="#F7E3A0" stroke="#C09F48" stroke-width="1" />
        <polygon points="30,17.5 44,4.5 44,71.5 30,84.5" fill="#C09F48" stroke="#C09F48" stroke-width="1" />
        <rect x="21" y="17.5" width="9" height="67" fill="#E8CB7E" stroke="#C09F48" stroke-width="1" />
        <polygon points="42,22.0 56,9.0 65,9.0 51,22.0" fill="#F7E3A0" stroke="#C09F48" stroke-width="1" />
        <polygon points="51,22.0 65,9.0 65,67.0 51,80.0" fill="#C09F48" stroke="#C09F48" stroke-width="1" />
        <rect x="42" y="22.0" width="9" height="58" fill="#E8CB7E" stroke="#C09F48" stroke-width="1" />
        <polygon points="63,26.5 77,13.5 86,13.5 72,26.5" fill="#F7E3A0" stroke="#C09F48" stroke-width="1" />
        <polygon points="72,26.5 86,13.5 86,62.5 72,75.5" fill="#C09F48" stroke="#C09F48" stroke-width="1" />
        <rect x="63" y="26.5" width="9" height="49" fill="#E8CB7E" stroke="#C09F48" stroke-width="1" />
        <polygon points="84,31.0 98,18.0 107,18.0 93,31.0" fill="#F7E3A0" stroke="#C09F48" stroke-width="1" />
        <polygon points="93,31.0 107,18.0 107,58.0 93,71.0" fill="#C09F48" stroke="#C09F48" stroke-width="1" />
        <rect x="84" y="31.0" width="9" height="40" fill="#E8CB7E" stroke="#C09F48" stroke-width="1" />
        <polygon points="105,35.5 119,22.5 128,22.5 114,35.5" fill="#F7E3A0" stroke="#C09F48" stroke-width="1" />
        <polygon points="114,35.5 128,22.5 128,53.5 114,66.5" fill="#C09F48" stroke="#C09F48" stroke-width="1" />
        <rect x="105" y="35.5" width="9" height="31" fill="#E8CB7E" stroke="#C09F48" stroke-width="1" />
      </g>
      <text x="271" y="107" font-size="23" fill="#273440" text-anchor="middle" font-weight="600">DINOv3-L/16</text>
      <rect x="217" y="244" width="109" height="30" fill="#FFF4D6" stroke="#D9BF78" rx="3" />
      <text x="271.5" y="266.0" font-size="18" fill="#273440" text-anchor="middle">LoRA</text>
      <text x="190" y="294" font-size="16" fill="#6D7580">Frozen backbone · trainable adapters</text>
      <path d="M355 181H414" fill="none" stroke="#6C7D89" stroke-width="2" marker-end="url(#forward)" />
      <g transform="translate(426 135) scale(1.0)">
        <polygon points="0,13.0 14,0.0 23,0.0 9,13.0" fill="#D0E0EB" stroke="#7E9DB3" stroke-width="1" />
        <polygon points="9,13.0 23,0.0 23,76.0 9,89.0" fill="#7E9DB3" stroke="#7E9DB3" stroke-width="1" />
        <rect x="0" y="13.0" width="9" height="76" fill="#A3BDCF" stroke="#7E9DB3" stroke-width="1" />
        <polygon points="21,17.5 35,4.5 44,4.5 30,17.5" fill="#D0E0EB" stroke="#7E9DB3" stroke-width="1" />
        <polygon points="30,17.5 44,4.5 44,71.5 30,84.5" fill="#7E9DB3" stroke="#7E9DB3" stroke-width="1" />
        <rect x="21" y="17.5" width="9" height="67" fill="#A3BDCF" stroke="#7E9DB3" stroke-width="1" />
        <polygon points="42,22.0 56,9.0 65,9.0 51,22.0" fill="#D0E0EB" stroke="#7E9DB3" stroke-width="1" />
        <polygon points="51,22.0 65,9.0 65,67.0 51,80.0" fill="#7E9DB3" stroke="#7E9DB3" stroke-width="1" />
        <rect x="42" y="22.0" width="9" height="58" fill="#A3BDCF" stroke="#7E9DB3" stroke-width="1" />
        <polygon points="63,26.5 77,13.5 86,13.5 72,26.5" fill="#D0E0EB" stroke="#7E9DB3" stroke-width="1" />
        <polygon points="72,26.5 86,13.5 86,62.5 72,75.5" fill="#7E9DB3" stroke="#7E9DB3" stroke-width="1" />
        <rect x="63" y="26.5" width="9" height="49" fill="#A3BDCF" stroke="#7E9DB3" stroke-width="1" />
      </g>
      <text x="474" y="107" font-size="23" fill="#273440" text-anchor="middle" font-weight="600">Pyramid-FPN</text>
      <path d="M527 181H572" fill="none" stroke="#6C7D89" stroke-width="2" marker-end="url(#forward)" />
      <g transform="translate(584 170)">
        <polygon points="0,27 13,10 49,10 36,27" fill="#E2E5E7" stroke="#A2A9AF" stroke-width="1" />
        <polygon points="0,22 13,5 49,5 36,22" fill="#E2E5E7" stroke="#A2A9AF" stroke-width="1" />
        <polygon points="0,17 13,0 49,0 36,17" fill="#E2E5E7" stroke="#A2A9AF" stroke-width="1" />
        <polygon points="0,12 13,-5 49,-5 36,12" fill="#E2E5E7" stroke="#A2A9AF" stroke-width="1" />
        <polygon points="0,7 13,-10 49,-10 36,7" fill="#E2E5E7" stroke="#A2A9AF" stroke-width="1" />
      </g>
      <text x="603" y="222" font-size="23" fill="#273440" font-family="Georgia, Times New Roman, serif" font-style="italic">F</text>
      <path d="M637 181H659V117H694" fill="none" stroke="#6C7D89" stroke-width="2" marker-end="url(#forward)" />
      <path d="M659 181V252H717" fill="none" stroke="#6C7D89" stroke-width="2" marker-end="url(#forward)" />
      <rect x="698" y="82" width="180" height="70" fill="#E6EFF7" stroke="#8BA9C0" rx="3" />
      <text x="788.0" y="112.0" font-size="22" fill="#273440" text-anchor="middle">Segmentation</text>
      <text x="788.0" y="136.0" font-size="22" fill="#273440" text-anchor="middle">head</text>
      <rect x="720" y="224" width="145" height="58" fill="#E0EEF9" stroke="#8EAFCB" rx="3" />
      <text x="792.5" y="260.0" font-size="24" fill="#273440" text-anchor="middle">VRA</text>
      <path d="M788 154V219" fill="none" stroke="#6C7D89" stroke-width="2" marker-end="url(#forward)" />
      <text x="801" y="196" font-size="21" fill="#273440" font-family="Georgia, Times New Roman, serif" font-style="italic"><tspan>Z</tspan><tspan baseline-shift="sub" font-size="70%">C</tspan></text>
      <path d="M881 117H917V160H956" fill="none" stroke="#6C7D89" stroke-width="2" marker-end="url(#forward)" />
      <text x="902" y="103" font-size="20" fill="#273440" font-family="Georgia, Times New Roman, serif" font-style="italic"><tspan>Z</tspan><tspan baseline-shift="sub" font-size="70%">C</tspan><tspan>, </tspan><tspan>Z</tspan><tspan baseline-shift="sub" font-size="70%">R</tspan></text>
      <path d="M868 253H917V199H956" fill="none" stroke="#6C7D89" stroke-width="2" marker-end="url(#forward)" />
      <text x="900" y="278" font-size="21" fill="#273440" font-family="Georgia, Times New Roman, serif" font-style="italic">B</text>
      <rect x="960" y="139" width="133" height="81" fill="#E0EFE6" stroke="#8BB9A4" rx="3" />
      <g transform="translate(970 154) scale(0.75)">
        <ellipse cx="30" cy="32" rx="27" ry="31" fill="#D9EBE1" stroke="#80B49D" stroke-width="1.5" />
        <ellipse cx="30" cy="32" rx="21" ry="25" fill="#A5CFBA" />
        <ellipse cx="30" cy="32" rx="12" ry="17" fill="#528C77" />
      </g>
      <text x="1055" y="187" font-size="25" fill="#273440" text-anchor="middle" font-weight="600">CP</text>
      <rect x="1014" y="160" width="58" height="39" fill="#E0EFE6" stroke="none" />
      <text x="1043" y="187" font-size="25" fill="#273440" text-anchor="middle" font-weight="600">CP</text>
      <path d="M1096 178H1354" fill="none" stroke="#2383D1" stroke-width="2" marker-end="url(#prediction)" />
      <text x="1210" y="163" font-size="22" fill="#273440" font-family="Georgia, Times New Roman, serif" font-style="italic" text-anchor="middle"><tspan>P</tspan><tspan baseline-shift="sub" font-size="70%">C</tspan><tspan>, </tspan><tspan>P</tspan><tspan baseline-shift="sub" font-size="70%">D</tspan></text>
      <path d="M1125 181V257H1170" fill="none" stroke="#6C7D89" stroke-width="2" marker-end="url(#forward)" />
      <text x="1140" y="226" font-size="18" fill="#273440" font-family="Georgia, Times New Roman, serif" font-style="italic"><tspan>P</tspan><tspan baseline-shift="sub" font-size="70%">C</tspan><tspan>, </tspan><tspan>P</tspan><tspan baseline-shift="sub" font-size="70%">D</tspan><tspan baseline-shift="super" font-size="70%">tr</tspan></text>
      <rect x="1173" y="237" width="112" height="42" fill="#EDE4F5" stroke="#AC8FC8" rx="3" />
      <text x="1229.0" y="265.0" font-size="18" fill="#273440" text-anchor="middle">Soft-vCDR</text>
      <text x="1229" y="299" font-size="17" fill="#A16D56" text-anchor="middle" font-style="italic">Training only</text>
      <rect x="1358" y="146" width="120" height="60" fill="#E7F0FB" stroke="#90B7DE" rx="3" />
      <text x="1418.0" y="171.0" font-size="21" fill="#273440" text-anchor="middle">Threshold</text>
      <text x="1418.0" y="195.0" font-size="21" fill="#273440" text-anchor="middle">0.5</text>
      <path d="M1418 208V228" fill="none" stroke="#2383D1" stroke-width="2" marker-end="url(#prediction)" />
      <g transform="translate(1378 234) scale(0.7547169811320755)">
        <rect x="0" y="0" width="106" height="106" fill="#F7F0E5" stroke="#D7C7AE" rx="4" />
        <circle cx="53" cy="53" r="46" fill="url(#fundus)" stroke="#C69B6D" stroke-width="1" />
        <path d="M66 47C49 35 38 34 25 23M49 35L43 18" fill="none" stroke="#AB735C" stroke-width="1.7" opacity="0.65" />
        <path d="M66 50C43 49 29 62 17 59M38 51L26 41" fill="none" stroke="#AB735C" stroke-width="1.7" opacity="0.65" />
        <path d="M66 54C52 63 46 77 32 84M49 69L64 87" fill="none" stroke="#AB735C" stroke-width="1.7" opacity="0.65" />
        <path d="M69 49C76 34 82 31 91 24M78 37L72 19" fill="none" stroke="#AB735C" stroke-width="1.7" opacity="0.65" />
        <path d="M70 56C83 62 83 78 91 86" fill="none" stroke="#AB735C" stroke-width="1.7" opacity="0.65" />
        <ellipse cx="68" cy="51" rx="15" ry="19" fill="#EACD93" stroke="#D5B47A" stroke-width="1" />
        <ellipse cx="68" cy="51" rx="7" ry="11" fill="#F5E1B1" />
        <ellipse cx="68" cy="51" rx="17" ry="21" fill="none" stroke="#4E967E" stroke-width="2.2" />
        <ellipse cx="68" cy="51" rx="8" ry="12" fill="none" stroke="#835AAA" stroke-width="2.2" />
      </g>
      <text x="1418" y="122" font-size="23" fill="#273440" font-family="Georgia, Times New Roman, serif" font-style="italic" text-anchor="middle">Output</text>
      <text x="1418" y="342" font-size="21" fill="#273440" text-anchor="middle" font-weight="600">OC ⊆ OD</text>
    </g>
    <g id="module-links" fill="none" stroke-width="1.5" stroke-dasharray="2 5">
      <path d="M792 283V331H255V365" fill="none" stroke="#ADC6DB" stroke-width="1.5" stroke-dasharray="2 5" />
      <path d="M1027 222V344H749V365" fill="none" stroke="#A3C9B6" stroke-width="1.5" stroke-dasharray="2 5" />
      <path d="M1230 280V365" fill="none" stroke="#C2AAD8" stroke-width="1.5" stroke-dasharray="2 5" />
      <circle cx="792" cy="283" r="3" fill="#FFFFFF" stroke="#ADC6DB" />
      <circle cx="1027" cy="222" r="3" fill="#FFFFFF" stroke="#A3C9B6" />
      <circle cx="1230" cy="280" r="3" fill="#FFFFFF" stroke="#C2AAD8" />
    </g>
    <g id="detail-vra" transform="translate(20 366)">
      <rect x="0" y="0" width="470" height="462" fill="#FAFCFE" stroke="#A9C6DF" stroke-width="1.5" stroke-dasharray="7 5" rx="3" />
      <text x="18" y="36" font-size="26" fill="#273440" font-family="Georgia, Times New Roman, serif" font-style="italic" font-weight="bold">Vertical region allocation (VRA)</text>
      <text x="18" y="65" font-size="18" fill="#677681">Localize the cup with a bounded vertical prior.</text>
      <g transform="translate(22 161)">
        <polygon points="0,27 13,10 49,10 36,27" fill="#E2E5E7" stroke="#A2A9AF" stroke-width="1" />
        <polygon points="0,22 13,5 49,5 36,22" fill="#E2E5E7" stroke="#A2A9AF" stroke-width="1" />
        <polygon points="0,17 13,0 49,0 36,17" fill="#E2E5E7" stroke="#A2A9AF" stroke-width="1" />
        <polygon points="0,12 13,-5 49,-5 36,12" fill="#E2E5E7" stroke="#A2A9AF" stroke-width="1" />
        <polygon points="0,7 13,-10 49,-10 36,7" fill="#E2E5E7" stroke="#A2A9AF" stroke-width="1" />
      </g>
      <text x="44" y="134" font-size="23" fill="#273440" font-family="Georgia, Times New Roman, serif" font-style="italic" text-anchor="middle">F</text>
      <path d="M74 163H91" fill="none" stroke="#6C7D89" stroke-width="2" marker-end="url(#forward)" />
      <rect x="95" y="135" width="108" height="60" fill="#E6EFF7" stroke="#8BA9C0" rx="3" />
      <text x="149.0" y="172.0" font-size="17" fill="#273440" text-anchor="middle">Pool + VRA</text>
      <path d="M205 163H225" fill="none" stroke="#6C7D89" stroke-width="2" marker-end="url(#forward)" />
      <rect x="229" y="105" width="20" height="27" fill="#74A0D6" stroke="#69809A" stroke-width="0.7" />
      <text x="259" y="124" font-size="16" fill="#273440">Outside</text>
      <rect x="229" y="132" width="20" height="27" fill="#BBDBAF" stroke="#69809A" stroke-width="0.7" />
      <text x="259" y="151" font-size="16" fill="#273440">Upper rim</text>
      <rect x="229" y="159" width="20" height="27" fill="#EEB6BC" stroke="#69809A" stroke-width="0.7" />
      <text x="259" y="178" font-size="16" fill="#273440">Cup</text>
      <rect x="229" y="186" width="20" height="27" fill="#BBDBAF" stroke="#69809A" stroke-width="0.7" />
      <text x="259" y="205" font-size="16" fill="#273440">Lower rim</text>
      <rect x="229" y="213" width="20" height="27" fill="#74A0D6" stroke="#69809A" stroke-width="0.7" />
      <text x="259" y="232" font-size="16" fill="#273440">Outside</text>
      <text x="239" y="96" font-size="18" fill="#273440" font-family="Georgia, Times New Roman, serif" font-style="italic" text-anchor="middle">Q = softmax(G)</text>
      <rect x="368" y="111" width="76" height="128" fill="url(#vertical-prior)" stroke="#8CA7BE" rx="2" />
      <text x="406" y="96" font-size="22" fill="#273440" font-family="Georgia, Times New Roman, serif" font-style="italic" text-anchor="middle">H</text>
      <path d="M239 241V254H350V219H365" fill="none" stroke="#6C7D89" stroke-width="2" marker-end="url(#forward)" />
      <text x="406" y="264" font-size="17" fill="#4B6C8B" text-anchor="middle">Cup prior</text>
      <text x="156" y="278" font-size="16" fill="#4B6C8B" text-anchor="middle">Uncertainty</text>
      <text x="29" y="318" font-size="23" fill="#273440" font-family="Georgia, Times New Roman, serif" font-style="italic"><tspan>Z</tspan><tspan baseline-shift="sub" font-size="70%">C</tspan></text>
      <path d="M57 311H88" fill="none" stroke="#6C7D89" stroke-width="2" marker-end="url(#forward)" />
      <rect x="93" y="285" width="127" height="57" fill="#EAF1F8" stroke="#8BA9C0" rx="3" />
      <text x="156.5" y="308.5" font-size="16" fill="#273440" text-anchor="middle"><tspan>S = σ(</tspan><tspan>Z</tspan><tspan baseline-shift="sub" font-size="70%">C</tspan><tspan>)</tspan></text>
      <text x="156.5" y="332.5" font-size="16" fill="#273440" text-anchor="middle">U = 4S(1 − S)</text>
      <path d="M223 313H249" fill="none" stroke="#6C7D89" stroke-width="2" marker-end="url(#forward)" />
      <path d="M406 269V283" fill="none" stroke="#6C7D89" stroke-width="2" marker-end="url(#forward)" />
      <rect x="253" y="285" width="191" height="57" fill="#DFECF7" stroke="#8BA9C0" rx="3" />
      <text x="348.5" y="320.5" font-size="17" fill="#273440" text-anchor="middle">Bounded correction B</text>
      <text x="235" y="381" font-size="19" fill="#273440" font-family="Georgia, Times New Roman, serif" font-style="italic" text-anchor="middle">B = tanh(α) U ⊙ clip(logit(H), −κ, κ)</text>
      <path d="M18 398H452" fill="none" stroke="#D2E1ED" stroke-width="1" />
      <text x="24" y="434" font-size="17" fill="#273440">GT region lengths</text>
      <path d="M172 428H204" fill="none" stroke="#BB795F" stroke-width="2" marker-end="url(#supervision)" stroke-dasharray="6 4" />
      <rect x="210" y="412" width="96" height="31" fill="#FFF9F4" stroke="#CB9279" stroke-dasharray="5 4" rx="2" />
      <text x="258" y="434" font-size="21" fill="#273440" font-family="Georgia, Times New Roman, serif" font-style="italic" text-anchor="middle"><tspan>L</tspan><tspan baseline-shift="sub" font-size="70%">VRA</tspan></text>
      <path d="M355 428H312" fill="none" stroke="#BB795F" stroke-width="2" marker-end="url(#supervision)" stroke-dasharray="6 4" />
      <text x="370" y="434" font-size="22" fill="#273440" font-family="Georgia, Times New Roman, serif" font-style="italic">Q</text>
    </g>
    <g id="detail-cp" transform="translate(514 366)">
      <rect x="0" y="0" width="470" height="462" fill="#FBFDFC" stroke="#A8CDBA" stroke-width="1.5" stroke-dasharray="7 5" rx="3" />
      <text x="18" y="36" font-size="26" fill="#273440" font-family="Georgia, Times New Roman, serif" font-style="italic" font-weight="bold">Cup-preserving composition (CP)</text>
      <text x="18" y="65" font-size="18" fill="#677681">Preserve cup probability; complete the disc.</text>
      <text x="48" y="110" font-size="22" fill="#273440" font-family="Georgia, Times New Roman, serif" font-style="italic" text-anchor="middle"><tspan>Z</tspan><tspan baseline-shift="sub" font-size="70%">C</tspan></text>
      <g transform="translate(24 125) scale(0.8)">
        <rect x="0" y="0" width="60" height="60" fill="#14212B" stroke="#465560" rx="2" />
        <ellipse cx="30" cy="30" rx="13" ry="18" fill="url(#cup-probability)" />
      </g>
      <path d="M75 149H100" fill="none" stroke="#6C7D89" stroke-width="2" marker-end="url(#forward)" />
      <circle cx="118" cy="149" r="14" fill="#ECF5EF" stroke="#73A68F" stroke-width="1.7" />
      <path d="M110 149H126M118 141V157" fill="none" stroke="#639F87" stroke-width="1.7" />
      <path d="M118 209V167" fill="none" stroke="#6C7D89" stroke-width="2" marker-end="url(#forward)" />
      <text x="118" y="234" font-size="23" fill="#273440" font-family="Georgia, Times New Roman, serif" font-style="italic" text-anchor="middle">B</text>
      <path d="M135 149H155" fill="none" stroke="#6C7D89" stroke-width="2" marker-end="url(#forward)" />
      <path d="M161 131v35h48" fill="none" stroke="#A7C9BC" stroke-width="1" />
      <path d="M164 164C185 164 185 134 205 134" fill="none" stroke="#539780" stroke-width="2.3" />
      <path d="M211 149H229" fill="none" stroke="#6C7D89" stroke-width="2" marker-end="url(#forward)" />
      <g transform="translate(234 125) scale(0.8)">
        <rect x="0" y="0" width="60" height="60" fill="#14212B" stroke="#465560" rx="2" />
        <ellipse cx="30" cy="30" rx="13" ry="18" fill="url(#cup-probability)" />
      </g>
      <text x="258" y="110" font-size="23" fill="#273440" font-family="Georgia, Times New Roman, serif" font-style="italic" text-anchor="middle"><tspan>P</tspan><tspan baseline-shift="sub" font-size="70%">C</tspan></text>
      <path d="M285 138H292V90H434" fill="none" stroke="#2383D1" stroke-width="2" marker-end="url(#prediction)" />
      <text x="436" y="113" font-size="19" fill="#273440" font-family="Georgia, Times New Roman, serif" font-style="italic" text-anchor="middle"><tspan>P</tspan><tspan baseline-shift="sub" font-size="70%">C</tspan></text>
      <path d="M285 150H300" fill="none" stroke="#6C7D89" stroke-width="2" marker-end="url(#forward)" />
      <rect x="305" y="132" width="51" height="33" fill="#EDF5EF" stroke="#86B49F" rx="3" />
      <text x="330.5" y="155.5" font-size="18" fill="#273440" text-anchor="middle">SG</text>
      <path d="M359 150H368V207" fill="none" stroke="#6C7D89" stroke-width="2" marker-end="url(#forward)" />
      <text x="48" y="268" font-size="23" fill="#273440" font-family="Georgia, Times New Roman, serif" font-style="italic" text-anchor="middle"><tspan>Z</tspan><tspan baseline-shift="sub" font-size="70%">R</tspan></text>
      <g transform="translate(24 283) scale(0.8)">
        <rect x="0" y="0" width="60" height="60" fill="#14212B" stroke="#465560" rx="2" />
        <ellipse cx="30" cy="30" rx="24" ry="26" fill="url(#disc-probability)" />
        <ellipse cx="30" cy="30" rx="12" ry="17" fill="#14212B" />
      </g>
      <path d="M76 307H155" fill="none" stroke="#6C7D89" stroke-width="2" marker-end="url(#forward)" />
      <path d="M161 289v35h48" fill="none" stroke="#A7C9BC" stroke-width="1" />
      <path d="M164 322C185 322 185 292 205 292" fill="none" stroke="#539780" stroke-width="2.3" />
      <path d="M211 307H229" fill="none" stroke="#6C7D89" stroke-width="2" marker-end="url(#forward)" />
      <g transform="translate(234 283) scale(0.8)">
        <rect x="0" y="0" width="60" height="60" fill="#14212B" stroke="#465560" rx="2" />
        <ellipse cx="30" cy="30" rx="24" ry="26" fill="url(#disc-probability)" />
        <ellipse cx="30" cy="30" rx="12" ry="17" fill="#14212B" />
      </g>
      <text x="258" y="270" font-size="18" fill="#273440" font-family="Georgia, Times New Roman, serif" font-style="italic" text-anchor="middle"><tspan>Conditional rim </tspan><tspan>P</tspan><tspan baseline-shift="sub" font-size="70%">R</tspan></text>
      <path d="M285 307H368V273" fill="none" stroke="#6C7D89" stroke-width="2" marker-end="url(#forward)" />
      <g transform="translate(340 207) scale(0.98)">
        <ellipse cx="30" cy="32" rx="27" ry="31" fill="#D9EBE1" stroke="#80B49D" stroke-width="1.5" />
        <ellipse cx="30" cy="32" rx="21" ry="25" fill="#A5CFBA" />
        <ellipse cx="30" cy="32" rx="12" ry="17" fill="#528C77" />
      </g>
      <path d="M398 240H410" fill="none" stroke="#6C7D89" stroke-width="2" marker-end="url(#forward)" />
      <g transform="translate(414 216) scale(0.7)">
        <rect x="0" y="0" width="60" height="60" fill="#14212B" stroke="#465560" rx="2" />
        <ellipse cx="30" cy="30" rx="24" ry="26" fill="url(#disc-probability)" />
      </g>
      <text x="435" y="203" font-size="22" fill="#273440" font-family="Georgia, Times New Roman, serif" font-style="italic" text-anchor="middle"><tspan>P</tspan><tspan baseline-shift="sub" font-size="70%">D</tspan></text>
      <text x="234" y="367" font-size="24" fill="#273440" font-family="Georgia, Times New Roman, serif" font-style="italic" text-anchor="middle"><tspan>P</tspan><tspan baseline-shift="sub" font-size="70%">D</tspan><tspan> = </tspan><tspan>P</tspan><tspan baseline-shift="sub" font-size="70%">C</tspan><tspan> + (1 − </tspan><tspan>P</tspan><tspan baseline-shift="sub" font-size="70%">C</tspan><tspan>) ⊙ </tspan><tspan>P</tspan><tspan baseline-shift="sub" font-size="70%">R</tspan></text>
      <text x="235" y="391" font-size="17" fill="#597767" text-anchor="middle">SG on cup → disc path during training only</text>
      <path d="M18 402H452" fill="none" stroke="#D1E5D9" stroke-width="1" />
      <text x="28" y="434" font-size="17" fill="#273440">GT masks</text>
      <path d="M113 428H175" fill="none" stroke="#BB795F" stroke-width="2" marker-end="url(#supervision)" stroke-dasharray="6 4" />
      <rect x="181" y="412" width="94" height="31" fill="#FFF9F4" stroke="#CB9279" stroke-dasharray="5 4" rx="2" />
      <text x="228" y="434" font-size="21" fill="#273440" font-family="Georgia, Times New Roman, serif" font-style="italic" text-anchor="middle"><tspan>L</tspan><tspan baseline-shift="sub" font-size="70%">seg</tspan></text>
      <path d="M345 428H282" fill="none" stroke="#BB795F" stroke-width="2" marker-end="url(#supervision)" stroke-dasharray="6 4" />
      <text x="389" y="434" font-size="20" fill="#273440" font-family="Georgia, Times New Roman, serif" font-style="italic" text-anchor="middle"><tspan>P</tspan><tspan baseline-shift="sub" font-size="70%">C</tspan><tspan>, </tspan><tspan>P</tspan><tspan baseline-shift="sub" font-size="70%">D</tspan><tspan baseline-shift="super" font-size="70%">tr</tspan></text>
    </g>
    <g id="detail-ratio" transform="translate(1008 366)">
      <rect x="0" y="0" width="470" height="462" fill="#FDFCFE" stroke="#C6B0DD" stroke-width="1.5" stroke-dasharray="7 5" rx="3" />
      <text x="18" y="36" font-size="26" fill="#273440" font-family="Georgia, Times New Roman, serif" font-style="italic" font-weight="bold">Soft-vCDR supervision</text>
      <text x="18" y="65" font-size="18" fill="#677681">Match vertical proportion during source training.</text>
      <g transform="translate(30 114) scale(0.8)">
        <rect x="0" y="0" width="60" height="60" fill="#14212B" stroke="#465560" rx="2" />
        <ellipse cx="30" cy="30" rx="13" ry="18" fill="url(#cup-probability)" />
      </g>
      <text x="54" y="105" font-size="23" fill="#273440" font-family="Georgia, Times New Roman, serif" font-style="italic" text-anchor="middle"><tspan>P</tspan><tspan baseline-shift="sub" font-size="70%">C</tspan></text>
      <path d="M82 138H115" fill="none" stroke="#6C7D89" stroke-width="2" marker-end="url(#forward)" />
      <path d="M123 110v63" fill="none" stroke="#B99AD2" stroke-width="1.3" />
      <rect x="126" y="113" width="8.695652173913043" height="4" fill="#B294CE" stroke="none" />
      <rect x="126" y="120" width="19.565217391304348" height="4" fill="#B294CE" stroke="none" />
      <rect x="126" y="127" width="33.69565217391305" height="4" fill="#B294CE" stroke="none" />
      <rect x="126" y="134" width="50.0" height="4" fill="#B294CE" stroke="none" />
      <rect x="126" y="141" width="40.21739130434783" height="4" fill="#B294CE" stroke="none" />
      <rect x="126" y="148" width="26.08695652173913" height="4" fill="#B294CE" stroke="none" />
      <rect x="126" y="155" width="13.043478260869565" height="4" fill="#B294CE" stroke="none" />
      <rect x="126" y="162" width="5.434782608695652" height="4" fill="#B294CE" stroke="none" />
      <g transform="translate(30 218) scale(0.8)">
        <rect x="0" y="0" width="60" height="60" fill="#14212B" stroke="#465560" rx="2" />
        <ellipse cx="30" cy="30" rx="24" ry="26" fill="url(#disc-probability)" />
      </g>
      <text x="54" y="209" font-size="23" fill="#273440" font-family="Georgia, Times New Roman, serif" font-style="italic" text-anchor="middle"><tspan>P</tspan><tspan baseline-shift="sub" font-size="70%">D</tspan><tspan baseline-shift="super" font-size="70%">tr</tspan></text>
      <path d="M82 242H115" fill="none" stroke="#6C7D89" stroke-width="2" marker-end="url(#forward)" />
      <path d="M123 215v63" fill="none" stroke="#B99AD2" stroke-width="1.3" />
      <rect x="126" y="218" width="8.695652173913043" height="4" fill="#B294CE" stroke="none" />
      <rect x="126" y="225" width="19.565217391304348" height="4" fill="#B294CE" stroke="none" />
      <rect x="126" y="232" width="33.69565217391305" height="4" fill="#B294CE" stroke="none" />
      <rect x="126" y="239" width="50.0" height="4" fill="#B294CE" stroke="none" />
      <rect x="126" y="246" width="40.21739130434783" height="4" fill="#B294CE" stroke="none" />
      <rect x="126" y="253" width="26.08695652173913" height="4" fill="#B294CE" stroke="none" />
      <rect x="126" y="260" width="13.043478260869565" height="4" fill="#B294CE" stroke="none" />
      <rect x="126" y="267" width="5.434782608695652" height="4" fill="#B294CE" stroke="none" />
      <path d="M178 141H216V180H245" fill="none" stroke="#6C7D89" stroke-width="2" marker-end="url(#forward)" />
      <path d="M178 246H216V208H245" fill="none" stroke="#6C7D89" stroke-width="2" marker-end="url(#forward)" />
      <circle cx="270" cy="194" r="23" fill="#EAE0F3" stroke="#AC8AC9" stroke-width="1.6" />
      <text x="270" y="203" font-size="31" fill="#9264B4" text-anchor="middle">÷</text>
      <text x="270" y="152" font-size="23" fill="#273440" font-family="Georgia, Times New Roman, serif" font-style="italic" text-anchor="middle"><tspan>r</tspan><tspan baseline-shift="sub" font-size="70%">soft</tspan></text>
      <text x="29" y="294" font-size="17" fill="#806897"><tspan>Moment-based extents </tspan><tspan>d</tspan><tspan baseline-shift="sub" font-size="70%">v</tspan></text>
      <path d="M297 194H389V225" fill="none" stroke="#BB795F" stroke-width="2" marker-end="url(#supervision)" stroke-dasharray="6 4" />
      <rect x="340" y="230" width="109" height="65" fill="#FFF9F4" stroke="#CB9279" stroke-dasharray="6 4" rx="2" />
      <text x="394" y="258" font-size="20" fill="#273440" text-anchor="middle">Smooth</text>
      <text x="394" y="282" font-size="20" fill="#273440" text-anchor="middle">L1</text>
      <text x="29" y="330" font-size="18" fill="#273440">Source GT masks</text>
      <g transform="translate(30 345) scale(0.7)">
        <rect x="0" y="0" width="60" height="60" fill="#14212B" stroke="#465560" rx="2" />
        <ellipse cx="30" cy="30" rx="23" ry="26" fill="#CBD4D9" />
        <ellipse cx="30" cy="30" rx="12" ry="17" fill="#FFFFFF" />
      </g>
      <path d="M76 366H115" fill="none" stroke="#6C7D89" stroke-width="2" marker-end="url(#forward)" />
      <path d="M123 336v63" fill="none" stroke="#B99AD2" stroke-width="1.3" />
      <rect x="126" y="339" width="8.695652173913043" height="4" fill="#B294CE" stroke="none" />
      <rect x="126" y="346" width="19.565217391304348" height="4" fill="#B294CE" stroke="none" />
      <rect x="126" y="353" width="33.69565217391305" height="4" fill="#B294CE" stroke="none" />
      <rect x="126" y="360" width="50.0" height="4" fill="#B294CE" stroke="none" />
      <rect x="126" y="367" width="40.21739130434783" height="4" fill="#B294CE" stroke="none" />
      <rect x="126" y="374" width="26.08695652173913" height="4" fill="#B294CE" stroke="none" />
      <rect x="126" y="381" width="13.043478260869565" height="4" fill="#B294CE" stroke="none" />
      <rect x="126" y="388" width="5.434782608695652" height="4" fill="#B294CE" stroke="none" />
      <path d="M178 366H250" fill="none" stroke="#6C7D89" stroke-width="2" marker-end="url(#forward)" />
      <text x="271" y="373" font-size="25" fill="#273440" font-family="Georgia, Times New Roman, serif" font-style="italic" text-anchor="middle">r*</text>
      <path d="M291 366H394V301" fill="none" stroke="#BB795F" stroke-width="2" marker-end="url(#supervision)" stroke-dasharray="6 4" />
      <path d="M18 413H452" fill="none" stroke="#E0D4EB" stroke-width="1" />
      <text x="235" y="442" font-size="22" fill="#273440" font-family="Georgia, Times New Roman, serif" font-style="italic" text-anchor="middle"><tspan>r</tspan><tspan baseline-shift="sub" font-size="70%">soft</tspan><tspan> = </tspan><tspan>d</tspan><tspan baseline-shift="sub" font-size="70%">v</tspan><tspan>(</tspan><tspan>P</tspan><tspan baseline-shift="sub" font-size="70%">C</tspan><tspan>) / (</tspan><tspan>d</tspan><tspan baseline-shift="sub" font-size="70%">v</tspan><tspan>(</tspan><tspan>P</tspan><tspan baseline-shift="sub" font-size="70%">D</tspan><tspan baseline-shift="super" font-size="70%">tr</tspan><tspan>) + ε)</tspan></text>
    </g>
    <g id="method-legend">
      <path d="M35 863H75" fill="none" stroke="#6C7D89" stroke-width="2" marker-end="url(#forward)" />
      <text x="85" y="870" font-size="18" fill="#52616C">Forward</text>
      <path d="M265 863H305" fill="none" stroke="#2383D1" stroke-width="2" marker-end="url(#prediction)" />
      <text x="315" y="870" font-size="18" fill="#52616C">Prediction</text>
      <path d="M510 863H550" fill="none" stroke="#BB795F" stroke-width="2" marker-end="url(#supervision)" stroke-dasharray="6 4" />
      <text x="560" y="870" font-size="18" fill="#52616C">Supervision</text>
      <path d="M790 863H835" fill="none" stroke="#A4B7C6" stroke-width="1.5" stroke-dasharray="2 5" />
      <circle cx="835" cy="863" r="3" fill="#FFF" stroke="#A4B7C6" />
      <text x="845" y="870" font-size="18" fill="#52616C">Module detail</text>
      <text x="1467" y="870" font-size="17" fill="#71808B" text-anchor="end">Schematic vectors · shared threshold 0.5</text>
    </g>
  </g>
</svg>
