<svg xmlns="http://www.w3.org/2000/svg" width="480" height="850" viewBox="0 0 480 850" role="img" aria-labelledby="title desc">
  <title id="title">CuPGeo — compact architecture, portrait layout</title>
  <desc id="desc">Compact architecture flow. A frozen DINOv3 backbone with trainable LoRA and Pyramid-FPN produces shared features. The segmentation head and vertical region allocation refine cup probability. Cup-preserving composition completes disc probability with a residual rim; stop-gradient affects only the cup-to-disc training path. A shared threshold yields nested masks. A training-only soft-vCDR loss compares predicted and source-mask moment ratios. Blue denotes frozen modules, peach trainable modules, and green fixed geometry or objectives. Input and mask thumbnails are synthetic vector schematics.</desc>
  <defs>
    <marker id="arrow" viewBox="0 0 8 8" refX="7" refY="4" markerWidth="6" markerHeight="6" orient="auto">
      <path d="M1 1L7 4L1 7Z" fill="#242424" />
    </marker>
    <radialGradient id="fundus" cx=".65" cy=".44" r=".78">
      <stop offset="0" stop-color="#CF8136" />
      <stop offset="0.45" stop-color="#A75223" />
      <stop offset="1" stop-color="#53251D" />
    </radialGradient>
  </defs>
  <rect width="480" height="850" fill="#FFFFFF" id="canvas" />
  <g font-family="Arial, Helvetica, sans-serif">
    <text x="24" y="36" font-size="25" fill="#242424" font-weight="600">CuPGeo</text>
    <text x="456" y="34" font-size="16" fill="#868B92" text-anchor="end">Source-only segmentation</text>
    <text x="240" y="76" font-size="16" fill="#868B92" text-anchor="middle">Representation</text>
    <path d="M24 71H160.39999999999998M319.6 71H456" fill="none" stroke="#C6CACF" stroke-width="1.3" />
    <rect x="24" y="98" width="202" height="60" rx="9" fill="#DFECF8" />
    <text x="125.0" y="134.0" font-size="19" fill="#242424" text-anchor="middle" data-contrast="on-pastel">DINOv3-L/16</text>
    <rect x="245" y="98" width="74" height="60" rx="9" fill="#FBE4D5" />
    <text x="282.0" y="134.0" font-size="17" fill="#242424" text-anchor="middle" data-contrast="on-pastel">LoRA</text>
    <rect x="338" y="98" width="118" height="60" rx="9" fill="#FBE4D5" />
    <text x="397.0" y="134.0" font-size="16" fill="#242424" text-anchor="middle" data-contrast="on-pastel">Pyramid-FPN</text>
    <path d="M228 128H241" fill="none" stroke="#242424" stroke-width="1.5" marker-end="url(#arrow)" />
    <path d="M321 128H334" fill="none" stroke="#242424" stroke-width="1.5" marker-end="url(#arrow)" />
    <path d="M397 161V189H124V222" fill="none" stroke="#242424" stroke-width="1.5" marker-end="url(#arrow)" />
    <path d="M358 189V222" fill="none" stroke="#242424" stroke-width="1.5" marker-end="url(#arrow)" />
    <rect x="30" y="226" width="184" height="58" rx="9" fill="#FBE4D5" />
    <text x="122.0" y="261.0" font-size="18" fill="#242424" text-anchor="middle" data-contrast="on-pastel">Segmentation head</text>
    <rect x="266" y="226" width="184" height="58" rx="9" fill="#FBE4D5" />
    <text x="358.0" y="261.0" font-size="20" fill="#242424" text-anchor="middle" data-contrast="on-pastel">VRA</text>
    <path d="M217 253H262" fill="none" stroke="#242424" stroke-width="1.5" marker-end="url(#arrow)" />
    <text x="239" y="243" font-size="16" fill="#B14A44" text-anchor="middle">Z<tspan baseline-shift="sub" font-size="70%">C</tspan></text>
    <path d="M124 288V368H141" fill="none" stroke="#242424" stroke-width="1.5" marker-end="url(#arrow)" />
    <path d="M358 288V368H339" fill="none" stroke="#242424" stroke-width="1.5" marker-end="url(#arrow)" />
    <text x="116" y="326" font-size="18" fill="#B14A44" text-anchor="end">Z<tspan baseline-shift="sub" font-size="70%">C</tspan></text>
    <text x="371" y="326" font-size="18" fill="#B14A44">B</text>
    <rect x="145" y="338" width="190" height="60" rx="9" fill="#E2EFD9" />
    <text x="240.0" y="362.0" font-size="19" fill="#242424" text-anchor="middle" data-contrast="on-pastel">Cup refine</text>
    <text x="240.0" y="386.0" font-size="19" fill="#242424" text-anchor="middle" data-contrast="on-pastel">σ(Z<tspan baseline-shift="sub" font-size="70%">C</tspan> + B)</text>
    <path d="M240 402V448" fill="none" stroke="#242424" stroke-width="1.5" marker-end="url(#arrow)" />
    <text x="252" y="428" font-size="18" fill="#B14A44">P<tspan baseline-shift="sub" font-size="70%">C</tspan></text>
    <path d="M27 254H16V490H141" fill="none" stroke="#242424" stroke-width="1.5" marker-end="url(#arrow)" />
    <text x="29" y="425" font-size="18" fill="#B14A44">Z<tspan baseline-shift="sub" font-size="70%">R</tspan></text>
    <rect x="145" y="452" width="190" height="76" rx="9" fill="#E2EFD9" />
    <text x="240.0" y="484.0" font-size="18" fill="#242424" text-anchor="middle" data-contrast="on-pastel">CP composition</text>
    <text x="240.0" y="508.0" font-size="18" fill="#242424" text-anchor="middle" data-contrast="on-pastel">SG on disc path</text>
    <path d="M240 532V562" fill="none" stroke="#242424" stroke-width="1.5" marker-end="url(#arrow)" />
    <rect x="67" y="566" width="346" height="60" rx="9" fill="#E2EFD9" />
    <text x="240.0" y="602.0" font-size="20" fill="#242424" text-anchor="middle" data-contrast="on-pastel">Threshold 0.5 → OC ⊆ OD</text>
    <path d="M243 548H440V676" fill="none" stroke="#242424" stroke-width="1.5" marker-end="url(#arrow)" stroke-dasharray="5 4" />
    <text x="24" y="661" font-size="16" fill="#868B92" font-style="italic">Training only</text>
    <rect x="24" y="680" width="192" height="56" rx="9" fill="#E2EFD9" />
    <text x="120.0" y="702.0" font-size="18" fill="#242424" text-anchor="middle" data-contrast="on-pastel">Source-mask</text>
    <text x="120.0" y="726.0" font-size="18" fill="#242424" text-anchor="middle" data-contrast="on-pastel">moments</text>
    <rect x="250" y="680" width="206" height="56" rx="9" fill="#E2EFD9" />
    <text x="353.0" y="702.0" font-size="18" fill="#242424" text-anchor="middle" data-contrast="on-pastel">Soft-vCDR</text>
    <text x="353.0" y="726.0" font-size="18" fill="#242424" text-anchor="middle" data-contrast="on-pastel">Smooth L1 · λ = 2</text>
    <path d="M219 708H246" fill="none" stroke="#242424" stroke-width="1.5" marker-end="url(#arrow)" stroke-dasharray="5 4" />
    <text x="240" y="776" font-size="21" fill="#242424" text-anchor="middle" font-style="italic"><tspan>P</tspan><tspan baseline-shift="sub" font-size="70%">D</tspan><tspan> = </tspan><tspan>P</tspan><tspan baseline-shift="sub" font-size="70%">C</tspan><tspan> + (1 − </tspan><tspan>P</tspan><tspan baseline-shift="sub" font-size="70%">C</tspan><tspan>) ⊙ </tspan><tspan>P</tspan><tspan baseline-shift="sub" font-size="70%">R</tspan></text>
    <rect x="16" y="797" width="448" height="37" rx="6" fill="#F5F5F5" />
    <rect x="29" y="806" width="20" height="19" rx="3" fill="#DFECF8" />
    <text x="57" y="821" font-size="16" fill="#242424">frozen</text>
    <rect x="164" y="806" width="20" height="19" rx="3" fill="#FBE4D5" />
    <text x="192" y="821" font-size="16" fill="#242424">trainable</text>
    <rect x="320" y="806" width="20" height="19" rx="3" fill="#E2EFD9" />
    <text x="348" y="821" font-size="16" fill="#242424">geometry</text>
  </g>
</svg>
