<svg xmlns="http://www.w3.org/2000/svg" width="480" height="1040" viewBox="0 0 480 1040" role="img" aria-labelledby="title desc">
  <title id="title">CuPGeo — matched experimental protocol, portrait layout</title>
  <desc id="desc">REFUGE supplies 320 training images and 80 source-validation images. For each of seeds 0, 1, and 2, CP is pretrained for 120 epochs. Its best source-validation checkpoint independently initializes five 120-epoch continuations: CP only, Full CuPGeo, without ratio, without VRA, and without stop-gradient. Source-validation Mean Dice selects checkpoints. Frozen models are evaluated on BinRushed, 39 images; Magrabia, 19; RIM-ONE DL, 174; and PAPILA, 84. Target data do not participate in training or model selection. Results are averaged equally across the four domains within each seed, then summarized as the mean and sample standard deviation across seeds.</desc>
  <defs>
    <marker id="arrow" viewBox="0 0 10 10" markerWidth="6" markerHeight="6" refX="8" refY="5" orient="auto">
      <path d="M1 1L9 5L1 9Z" fill="#242424" />
    </marker>
    <marker id="stage-arrow" viewBox="0 0 10 10" markerWidth="6" markerHeight="6" refX="8" refY="5" orient="auto">
      <path d="M2 1L8 5L2 9" fill="none" stroke="#C6CACF" stroke-width="1.5" />
    </marker>
  </defs>
  <rect width="480" height="1040" fill="#FFFFFF" id="canvas" />
  <g font-family="Arial, Helvetica, sans-serif">
    <text x="24" y="37" font-size="25" fill="#242424" font-weight="600">Matched experiments</text>
    <text x="456" y="35" font-size="17" fill="#868B92" text-anchor="end">240 epochs</text>
    <text x="240" y="78" font-size="16" fill="#868B92" text-anchor="middle">Source training</text>
    <path d="M24 73H156.0M324.0 73H456" fill="none" stroke="#C6CACF" stroke-width="1.3" />
    <rect x="24" y="98" width="196" height="66" rx="9" fill="#DFECF8" />
    <text x="122.0" y="125.0" font-size="19" fill="#242424" text-anchor="middle" data-contrast="on-pastel">REFUGE</text>
    <text x="122.0" y="149.0" font-size="19" fill="#242424" text-anchor="middle" data-contrast="on-pastel">320 training images</text>
    <rect x="252" y="98" width="204" height="66" rx="9" fill="#FBE4D5" />
    <text x="354.0" y="125.0" font-size="19" fill="#242424" text-anchor="middle" data-contrast="on-pastel">CP pretraining</text>
    <text x="354.0" y="149.0" font-size="19" fill="#242424" text-anchor="middle" data-contrast="on-pastel">120 epochs</text>
    <path d="M223 131H248" fill="none" stroke="#242424" stroke-width="1.5" marker-end="url(#arrow)" />
    <path d="M354 168V203H50V449" fill="none" stroke="#242424" stroke-width="1.5" marker-end="url(#arrow)" />
    <text x="240" y="194" font-size="16" fill="#868B92" text-anchor="middle">Same-seed source-selected CP best</text>
    <rect x="85" y="229" width="371" height="39" rx="7" fill="#FBE4D5" />
    <text x="101" y="255" font-size="18" fill="#242424" data-contrast="on-pastel" font-weight="400">CP only</text>
    <text x="440" y="254" font-size="16" fill="#242424" text-anchor="end" data-contrast="on-pastel">+120 epochs</text>
    <path d="M50 249H81" fill="none" stroke="#242424" stroke-width="1.5" marker-end="url(#arrow)" />
    <rect x="85" y="279" width="371" height="39" rx="7" fill="#FBE4D5" />
    <text x="101" y="305" font-size="18" fill="#242424" data-contrast="on-pastel" font-weight="600">Full CuPGeo</text>
    <text x="440" y="304" font-size="16" fill="#242424" text-anchor="end" data-contrast="on-pastel">+120 epochs</text>
    <path d="M50 299H81" fill="none" stroke="#242424" stroke-width="1.5" marker-end="url(#arrow)" />
    <rect x="85" y="329" width="371" height="39" rx="7" fill="#FBE4D5" />
    <text x="101" y="355" font-size="18" fill="#242424" data-contrast="on-pastel" font-weight="400">w/o ratio</text>
    <text x="440" y="354" font-size="16" fill="#242424" text-anchor="end" data-contrast="on-pastel">+120 epochs</text>
    <path d="M50 349H81" fill="none" stroke="#242424" stroke-width="1.5" marker-end="url(#arrow)" />
    <rect x="85" y="379" width="371" height="39" rx="7" fill="#FBE4D5" />
    <text x="101" y="405" font-size="18" fill="#242424" data-contrast="on-pastel" font-weight="400">w/o VRA</text>
    <text x="440" y="404" font-size="16" fill="#242424" text-anchor="end" data-contrast="on-pastel">+120 epochs</text>
    <path d="M50 399H81" fill="none" stroke="#242424" stroke-width="1.5" marker-end="url(#arrow)" />
    <rect x="85" y="429" width="371" height="39" rx="7" fill="#FBE4D5" />
    <text x="101" y="455" font-size="18" fill="#242424" data-contrast="on-pastel" font-weight="400">w/o SG</text>
    <text x="440" y="454" font-size="16" fill="#242424" text-anchor="end" data-contrast="on-pastel">+120 epochs</text>
    <path d="M50 449H81" fill="none" stroke="#242424" stroke-width="1.5" marker-end="url(#arrow)" />
    <text x="240" y="496" font-size="16" fill="#868B92" text-anchor="middle">Five independent continuations</text>
    <text x="240" y="539" font-size="16" fill="#868B92" text-anchor="middle">Source-only selection</text>
    <path d="M24 534H129.6M350.4 534H456" fill="none" stroke="#C6CACF" stroke-width="1.3" />
    <rect x="24" y="558" width="432" height="78" rx="9" fill="#DFECF8" />
    <text x="240.0" y="591.0" font-size="20" fill="#242424" text-anchor="middle" data-contrast="on-pastel">REFUGE · 80 validation images</text>
    <text x="240.0" y="615.0" font-size="20" fill="#242424" text-anchor="middle" data-contrast="on-pastel">Best source-validation Mean Dice</text>
    <text x="240" y="681" font-size="16" fill="#868B92" text-anchor="middle">Frozen evaluation</text>
    <path d="M24 676H147.2M332.8 676H456" fill="none" stroke="#C6CACF" stroke-width="1.3" />
    <rect x="24" y="701" width="432" height="33" rx="6" fill="#E2EFD9" />
    <text x="40" y="724" font-size="18" fill="#242424" data-contrast="on-pastel">BinRushed</text>
    <text x="440" y="724" font-size="16" fill="#242424" text-anchor="end" data-contrast="on-pastel">39 images</text>
    <rect x="24" y="744" width="432" height="33" rx="6" fill="#E2EFD9" />
    <text x="40" y="767" font-size="18" fill="#242424" data-contrast="on-pastel">Magrabia</text>
    <text x="440" y="767" font-size="16" fill="#242424" text-anchor="end" data-contrast="on-pastel">19 images</text>
    <rect x="24" y="787" width="432" height="33" rx="6" fill="#E2EFD9" />
    <text x="40" y="810" font-size="18" fill="#242424" data-contrast="on-pastel">RIM-ONE DL</text>
    <text x="440" y="810" font-size="16" fill="#242424" text-anchor="end" data-contrast="on-pastel">174 images</text>
    <rect x="24" y="830" width="432" height="33" rx="6" fill="#E2EFD9" />
    <text x="40" y="853" font-size="18" fill="#242424" data-contrast="on-pastel">PAPILA</text>
    <text x="440" y="853" font-size="16" fill="#242424" text-anchor="end" data-contrast="on-pastel">84 images</text>
    <text x="240" y="893" font-size="16" fill="#868B92" text-anchor="middle">Targets used for evaluation only</text>
    <rect x="16" y="916" width="448" height="108" rx="6" fill="#F5F5F5" />
    <text x="35" y="945" font-size="18" fill="#242424">Seeds 0, 1, 2</text>
    <text x="35" y="975" font-size="17" fill="#242424">Equal four-domain mean within each seed</text>
    <text x="35" y="1004" font-size="17" fill="#242424">→ Mean ± sample SD across seeds</text>
  </g>
</svg>
